<svg id="LOGOS" xmlns="http://www.w3.org/2000/svg" width="157.494" height="40" viewBox="0 0 157.494 40">
  <g id="Grupo_142" data-name="Grupo 142" transform="translate(0 0)">
    <path id="Caminho_154" data-name="Caminho 154" d="M661.823,394.1l-1.386,3.872a5.865,5.865,0,0,0-1.287-.2H646.6v-.265a3.079,3.079,0,0,0,.6-1.789V376.654a3.011,3.011,0,0,0-.6-1.789V374.6h3.7v.265a3.825,3.825,0,0,0-.6,1.789v19.262h7.547A5.888,5.888,0,0,0,661.685,394Z" transform="translate(-596.038 -369.507)" fill="#1d425c"/>
    <path id="Caminho_155" data-name="Caminho 155" d="M918.413,391.933l-1.386,3.872a5.862,5.862,0,0,0-1.287-.2H903.2v-.265a3.078,3.078,0,0,0,.6-1.789V374.49a3.011,3.011,0,0,0-.6-1.789v-.265h11.469a4.5,4.5,0,0,0,1.818-.236h.128v3.813h-.128c-.629-1.327-1.356-1.72-3.312-1.72h-6.869v7.017h6.673a2.34,2.34,0,0,0,1.16-.295h.128V383.7h-.128a4.691,4.691,0,0,0-1.985-.531h-5.847v10.584h7.547a5.888,5.888,0,0,0,4.432-1.916Z" transform="translate(-827.421 -367.343)" fill="#1d425c"/>
    <path id="Caminho_156" data-name="Caminho 156" d="M1198.761,393.4a7.549,7.549,0,0,0,1.16,4.108v.265h-4.167a7.409,7.409,0,0,0,.432-3.843l-1.022-16.608-9.169,20.775h-.265l-8.864-20.844-1.091,16.677a7.424,7.424,0,0,0,.432,3.843H1172.6v-.265a7.634,7.634,0,0,0,1.159-4.108l1.16-16.746a2.014,2.014,0,0,0-.727-1.789V374.6h4.3l7.773,18.367,8.009-18.367h4.069v.265a2,2,0,0,0-.727,1.789Z" transform="translate(-1070.346 -369.507)" fill="#1d425c"/>
    <path id="Caminho_157" data-name="Caminho 157" d="M1595.113,391.933l-1.386,3.872a5.863,5.863,0,0,0-1.287-.2H1579.9v-.265a3.079,3.079,0,0,0,.6-1.789V374.49a3.01,3.01,0,0,0-.6-1.789v-.265h11.469a4.536,4.536,0,0,0,1.818-.236h.138v3.813h-.138c-.629-1.327-1.356-1.72-3.312-1.72h-6.869v7.017h6.673a2.339,2.339,0,0,0,1.16-.295h.128V383.7h-.128a4.69,4.69,0,0,0-1.985-.531h-5.847v10.584h7.547a5.888,5.888,0,0,0,4.432-1.916Z" transform="translate(-1437.619 -367.343)" fill="#1d425c"/>
    <path id="Caminho_158" data-name="Caminho 158" d="M649.3,687.8h.649v.049a.552.552,0,0,0-.108.314v3.322a.552.552,0,0,0,.108.315v.049H649.3V691.8a.552.552,0,0,0,.108-.315v-3.322a.552.552,0,0,0-.108-.314Z" transform="translate(-598.473 -651.928)" fill="#1d425c"/>
    <path id="Caminho_159" data-name="Caminho 159" d="M688.844,687.71v.049a.552.552,0,0,0-.108.314v3.734h-.049l-3.007-3.479v2.752a1.451,1.451,0,0,0,.118.668h-.59V691.7a.552.552,0,0,0,.108-.314v-3.164a.615.615,0,0,0-.216-.472V687.7h.609l2.663,3.086v-2.417a1.451,1.451,0,0,0-.118-.668h.59Z" transform="translate(-630.755 -651.837)" fill="#1d425c"/>
    <path id="Caminho_160" data-name="Caminho 160" d="M753.872,687.5l-.138.521h-.02a.591.591,0,0,0-.482-.157h-.767v3.361a.552.552,0,0,0,.108.315v.049h-.649v-.049a.552.552,0,0,0,.108-.315v-3.361h-.845a.79.79,0,0,0-.57.3h-.02l.226-.658h.01a1.123,1.123,0,0,0,.216.039h2.614a.77.77,0,0,0,.216-.039h-.01Z" transform="translate(-689.818 -651.657)" fill="#1d425c"/>
    <path id="Caminho_161" data-name="Caminho 161" d="M813.753,690.749l-.246.678a1.214,1.214,0,0,0-.226-.039H811.1v-.049a.552.552,0,0,0,.108-.315V687.7a.552.552,0,0,0-.108-.314v-.049h1.828a.775.775,0,0,0,.314-.039h.02v.668h-.02c-.108-.236-.236-.3-.58-.3H811.64v1.219h.993a.491.491,0,0,0,.206-.049h.02v.472h-.02a.846.846,0,0,0-.344-.089h-.845v1.848h1.307a1.027,1.027,0,0,0,.776-.334Z" transform="translate(-744.372 -651.477)" fill="#1d425c"/>
    <path id="Caminho_162" data-name="Caminho 162" d="M867.853,691.11l-.246.678a1.214,1.214,0,0,0-.226-.039H865.2V691.7a.552.552,0,0,0,.108-.314v-3.322a.552.552,0,0,0-.108-.314V687.7h.649v.049a.666.666,0,0,0-.108.314v3.361h1.317a1.027,1.027,0,0,0,.776-.334Z" transform="translate(-793.156 -651.837)" fill="#1d425c"/>
    <path id="Caminho_163" data-name="Caminho 163" d="M920,687.8h.649v.049a.553.553,0,0,0-.108.314v3.322a.553.553,0,0,0,.108.315v.049H920V691.8a.553.553,0,0,0,.108-.315v-3.322a.553.553,0,0,0-.108-.314Z" transform="translate(-842.57 -651.928)" fill="#1d425c"/>
    <path id="Caminho_164" data-name="Caminho 164" d="M959.564,688.975a.931.931,0,0,0-.039.256v1.228a.217.217,0,0,0,.039.157v.02a3.519,3.519,0,0,1-1.749.56,2.056,2.056,0,0,1-1.425-.55,1.918,1.918,0,0,1-.59-1.464,2.127,2.127,0,0,1,.619-1.553,2.261,2.261,0,0,1,1.69-.629,3.4,3.4,0,0,1,1.219.226l-.187.452a2.079,2.079,0,0,0-1.15-.354,1.583,1.583,0,0,0-1.72,1.71,1.833,1.833,0,0,0,.472,1.337,1.543,1.543,0,0,0,1.16.482,2.264,2.264,0,0,0,1.2-.354v-1.16a.344.344,0,0,0-.246-.354v-.049h.717v.039Z" transform="translate(-874.852 -651.206)" fill="#1d425c"/>
    <path id="Caminho_165" data-name="Caminho 165" d="M1027.053,678.125l-.246.678a1.221,1.221,0,0,0-.226-.039H1024.4v-.049a.552.552,0,0,0,.108-.315v-3.322a.552.552,0,0,0-.108-.315v-.049h1.828a.775.775,0,0,0,.315-.039h.02v.668h-.02c-.108-.236-.236-.3-.58-.3h-1.012v1.219h.993a.491.491,0,0,0,.206-.049h.02v.472h-.02a.847.847,0,0,0-.344-.089h-.845v1.848h1.317a1.027,1.027,0,0,0,.776-.334Zm-2.162-3.862h-.089l.079-.118.088-.128a1.149,1.149,0,0,0,.079-.118,1.533,1.533,0,0,0,.147-.275,1.507,1.507,0,0,0,.1-.324h.491a1.957,1.957,0,0,0,.157.462l.157.255a.637.637,0,0,1,.088.128l.079.118h-.088a1.854,1.854,0,0,1-.649-.609A1.737,1.737,0,0,1,1024.891,674.263Z" transform="translate(-936.71 -638.852)" fill="#1d425c"/>
    <path id="Caminho_166" data-name="Caminho 166" d="M1081.144,687.71v.049a.553.553,0,0,0-.108.314v3.734h-.049l-3.007-3.479v2.752a1.451,1.451,0,0,0,.118.668h-.59V691.7a.552.552,0,0,0,.108-.314v-3.164a.615.615,0,0,0-.216-.472V687.7h.609l2.663,3.086v-2.417a1.451,1.451,0,0,0-.118-.668h.59Z" transform="translate(-984.502 -651.837)" fill="#1d425c"/>
    <path id="Caminho_167" data-name="Caminho 167" d="M1147.269,690.549l-.275.54a2.939,2.939,0,0,1-1,.206,2.288,2.288,0,0,1-1.572-.55,1.935,1.935,0,0,1-.619-1.513,2.015,2.015,0,0,1,2.113-2.133,3.505,3.505,0,0,1,1.081.177l.078.541a2.3,2.3,0,0,0-.54-.295,1.673,1.673,0,0,0-.58-.089,1.513,1.513,0,0,0-1.69,1.671,1.932,1.932,0,0,0,.472,1.376,1.579,1.579,0,0,0,1.179.491,2.484,2.484,0,0,0,1.317-.4h.039Z" transform="translate(-1044.376 -651.296)" fill="#1d425c"/>
    <path id="Caminho_168" data-name="Caminho 168" d="M1208.6,687.8h.649v.049a.554.554,0,0,0-.108.314v3.322a.554.554,0,0,0,.108.315v.049h-.649V691.8a.553.553,0,0,0,.108-.315v-3.322a.553.553,0,0,0-.108-.314Z" transform="translate(-1102.808 -651.928)" fill="#1d425c"/>
    <path id="Caminho_169" data-name="Caminho 169" d="M1246.046,691.169a1.218,1.218,0,0,0,.138.246,1.246,1.246,0,0,0,.275.285v.049h-.776a1.891,1.891,0,0,0-.167-.727l-.413-.973h-1.445l-.413.973a1.973,1.973,0,0,0-.167.727h-.678V691.7a1.917,1.917,0,0,0,.324-.354.747.747,0,0,0,.088-.177l1.317-3.017a.418.418,0,0,0-.029-.4V687.7h.472Zm-2.26-1.435h1.169l-.58-1.366Z" transform="translate(-1133.287 -651.837)" fill="#1d425c"/>
    <path id="Caminho_170" data-name="Caminho 170" d="M1345.762,687.4v.668h-.02c-.108-.236-.236-.3-.58-.3h-1.032v1.219h.992a.491.491,0,0,0,.207-.049h.02v.472h-.02a.847.847,0,0,0-.344-.089h-.845v1.808a.552.552,0,0,0,.108.315v.049h-.649v-.049a.554.554,0,0,0,.108-.315V687.8a.554.554,0,0,0-.108-.315v-.049h1.828a.775.775,0,0,0,.314-.039Z" transform="translate(-1224.541 -651.567)" fill="#1d425c"/>
    <path id="Caminho_171" data-name="Caminho 171" d="M1394.646,690.516a2.264,2.264,0,0,1-3.037.01,1.971,1.971,0,0,1-.609-1.513,2.083,2.083,0,0,1,.6-1.513,2.263,2.263,0,0,1,3.047-.02,1.949,1.949,0,0,1,.609,1.5A2.1,2.1,0,0,1,1394.646,690.516Zm-.364-2.752a1.688,1.688,0,0,0-1.278-.521,1.477,1.477,0,0,0-1.543,1.651,1.866,1.866,0,0,0,.491,1.366,1.681,1.681,0,0,0,1.278.511,1.477,1.477,0,0,0,1.543-1.651A1.842,1.842,0,0,0,1394.282,687.765Z" transform="translate(-1267.283 -651.116)" fill="#1d425c"/>
    <path id="Caminho_172" data-name="Caminho 172" d="M1465.014,691.036a1.63,1.63,0,0,0,.413.393v.049a1.936,1.936,0,0,1-.206.01.773.773,0,0,1-.649-.295l-1.051-1.376a.574.574,0,0,0-.5-.246h-.069v1.238a1.45,1.45,0,0,0,.118.668h-.668v-.049a.552.552,0,0,0,.108-.314v-3.322a.552.552,0,0,0-.108-.314v-.049c.246-.02.57-.03.983-.03.855,0,1.287.315,1.287.953a1.028,1.028,0,0,1-.265.737,1.525,1.525,0,0,1-.639.393Zm-1.995-1.749a1.379,1.379,0,0,0,1.012-.285.781.781,0,0,0,.2-.57c0-.482-.216-.708-.816-.708-.216,0-.354,0-.442.01v1.553h.049Z" transform="translate(-1331.666 -651.567)" fill="#1d425c"/>
    <path id="Caminho_173" data-name="Caminho 173" d="M1521.853,690.749l-.246.678a1.216,1.216,0,0,0-.226-.039H1519.2v-.049a.553.553,0,0,0,.108-.315V687.7a.553.553,0,0,0-.108-.314v-.049h1.828a.776.776,0,0,0,.315-.039h.02v.668h-.02c-.108-.236-.236-.3-.58-.3h-1.022v1.219h.993a.492.492,0,0,0,.206-.049h.02v.472h-.02a.886.886,0,0,0-.344-.089h-.845v1.848h1.317a1.027,1.027,0,0,0,.776-.334Z" transform="translate(-1382.884 -651.477)" fill="#1d425c"/>
    <path id="Caminho_174" data-name="Caminho 174" d="M1575.844,687.71v.049a.552.552,0,0,0-.108.314v3.734h-.049l-3.007-3.479v2.752a1.451,1.451,0,0,0,.118.668h-.59V691.7a.552.552,0,0,0,.108-.314v-3.164a.615.615,0,0,0-.216-.472V687.7h.609l2.663,3.086v-2.417a1.451,1.451,0,0,0-.118-.668h.59Z" transform="translate(-1430.586 -651.837)" fill="#1d425c"/>
    <path id="Caminho_175" data-name="Caminho 175" d="M1641.09,687.609a1.586,1.586,0,0,0-.885-.275c-.511,0-.776.295-.776.619,0,.216.148.413.432.59.059.039.167.089.3.157l.078.049a3.963,3.963,0,0,1,.4.226,3.821,3.821,0,0,1,.344.256.938.938,0,0,1,.383.8,1.169,1.169,0,0,1-.354.835,1.277,1.277,0,0,1-.924.344,2.179,2.179,0,0,1-1.169-.334l-.128-.619h.039a1.363,1.363,0,0,0,.5.423,1.475,1.475,0,0,0,.718.187.782.782,0,0,0,.855-.776.827.827,0,0,0-.3-.639,2.589,2.589,0,0,0-.619-.4,4.567,4.567,0,0,1-.708-.423A.8.8,0,0,1,1639,688a.948.948,0,0,1,.314-.708,1.206,1.206,0,0,1,.855-.295,3.539,3.539,0,0,1,.884.138Z" transform="translate(-1490.731 -651.206)" fill="#1d425c"/>
    <path id="Caminho_176" data-name="Caminho 176" d="M1696.053,690.749l-.245.678a1.214,1.214,0,0,0-.226-.039H1693.4v-.049a.552.552,0,0,0,.108-.315V687.7a.552.552,0,0,0-.108-.314v-.049h1.828a.776.776,0,0,0,.314-.039h.02v.668h-.02c-.108-.236-.236-.3-.58-.3h-1.012v1.219h.993a.491.491,0,0,0,.206-.049h.02v.472h-.02a.886.886,0,0,0-.344-.089h-.845v1.848h1.317a1.027,1.027,0,0,0,.776-.334Z" transform="translate(-1539.965 -651.477)" fill="#1d425c"/>
    <rect id="Retângulo_74" data-name="Retângulo 74" width="1.356" height="13.788" transform="translate(89.375) rotate(90)" fill="#1d425c"/>
    <rect id="Retângulo_75" data-name="Retângulo 75" width="13.601" height="1.523" transform="translate(0 21.78)" fill="#1d425c"/>
    <path id="Caminho_177" data-name="Caminho 177" d="M178.7,422.171l1.071-1.071,9.031,9.022h-1.081V431.2Z" transform="translate(-174.12 -411.437)" fill="#1d425c"/>
    <rect id="Retângulo_76" data-name="Retângulo 76" width="1.523" height="13.601" transform="translate(16.687 5.083)" fill="#1d425c"/>
    <rect id="Retângulo_77" data-name="Retângulo 77" width="13.601" height="1.523" transform="translate(21.296 21.78)" fill="#1d425c"/>
    <path id="Caminho_178" data-name="Caminho 178" d="M337.9,581.381h1.071V580.3L348,589.331l-1.071,1.071Z" transform="translate(-317.675 -554.992)" fill="#1d425c"/>
    <rect id="Retângulo_78" data-name="Retângulo 78" width="1.523" height="13.601" transform="translate(16.687 26.389)" fill="#1d425c"/>
    <rect id="Retângulo_79" data-name="Retângulo 79" width="34.897" height="1.523" transform="translate(4.576 34.342) rotate(-45)" fill="#e5695b"/>
  </g>
</svg>
