<svg xmlns="http://www.w3.org/2000/svg" width="1366" height="155" viewBox="0 0 1366 155">
  <g id="Grupo_1117" data-name="Grupo 1117" transform="translate(0 -405)">
    <circle id="Elipse_2" data-name="Elipse 2" cx="61" cy="61" r="61" transform="translate(654 405)" fill="#ea9288"/>
    <g id="Grupo_1116" data-name="Grupo 1116">
      <path id="wave_3_" data-name="wave (3)" d="M0,32H14.229c14.229,0,42.688,0,71.146,2.968s56.917,8.9,85.375,14.838,56.917,11.87,85.375,12.853c28.458,1.057,56.917-3.023,85.375-6.918s56.917-7.975,85.375-10.887c28.458-3.023,56.917-4.878,85.375-.983s56.917,13.911,85.375,19.79A311.2,311.2,0,0,0,683,69.6c28.458-1.985,56.917-7.92,85.375-7.92s56.917,5.935,85.375,1.985c28.458-4.025,56.917-17.75,85.375-18.807,28.458-.983,56.917,10.887,85.375,13.855s56.917-2.968,85.375-3.951c28.458-1.057,56.917,3.023,85.375,2.968,28.458.056,56.917-4.025,85.375-5.935,28.458-1.985,56.917-1.985,71.146-1.985H1366v99H0Z" transform="translate(0 407.475)" fill="#a1adb9"/>
      <path id="wave_2_" data-name="wave (2)" d="M0,32l16.221,6.59C32.537,45.3,65.454,58.3,97.707,61.7c32.348,3.4,64.506-3.4,97.707,4.95C227.667,75,259.919,97.9,293.121,94.709,325.279,91.4,357.626,61.7,389.879,51.8c32.917-9.9,65.454,0,97.707,6.59,32.822,6.713,65.454,9.807,97.707,4.95C617.925,58.3,650.747,45.3,683,50.16,715.537,55.2,748.454,78.1,780.707,84.809c32.348,6.59,64.506-3.31,97.707-14.85C910.667,58.3,942.919,45.3,976.121,45.21c32.158.093,64.506,13.086,96.758,16.489,32.917,3.4,65.454-3.4,97.707-8.26,32.822-5.043,65.454-8.136,97.707-11.539,32.632-3.4,65.454-6.5,81.581-8.26L1366,32v89.1H0Z" transform="translate(0 413.144)" fill="#768999"/>
      <path id="wave_1_" data-name="wave (1)" d="M0,68.834V45.389C13.072,37,14.139,36.5,28.2,34.572,53.528,33.111,139.5,73.42,165.11,68.834c25.328-4.761,43.156-24.828,68.769-28.041,25.328-3.213,44.064,1.665,69.676,14.02,25.328,12.472,50.276,17.146,75.889,24.944,25.328,7.682,50.276-4.586,75.889-7.8,25.328-3.213,50.276,3.213,75.889-4.673,25.328-7.886,50.276-29.5,75.889-26.493C632.439,43.919,657.388,71.959,683,76.633c25.328,4.673,50.276-14.02,75.889-21.819,25.328-7.682,50.276-4.761,75.889,1.577,25.328,6.222,50.276,15.568,75.889,12.443,25.328-3.009,50.276-18.781,75.889-28.041,25.328-9.434,50.276-12.355,75.889-6.222,25.328,6.134,50.276,21.907,75.889,21.819,25.328.088,50.276-15.685,75.889-18.694,25.328-3.125,50.276,6.222,75.889,12.443,25.328,6.338,50.276,9.259,63.557,10.924L1366,62.612v64.307H0Z" transform="translate(0 424.895)" fill="#4c657a"/>
      <path id="wave" d="M0,102.774,12.617,90.927c12.711-11.974,37.66-35.478,63.272-42.37,25.328-6.765,50.276,3.4,75.889,11.879,25.328,8.353,50.276,15.341,75.889,22.011,25.328,6.67,50.276,13.658,75.889,10.164,25.328-3.494,50.276-16.834,75.889-20.328,25.328-3.494,50.276,3.494,75.889,15.246,25.328,11.752,50.276,28.9,75.889,28.808,25.328.1,50.276-17.056,75.889-28.808A254.507,254.507,0,0,1,683,65.517c25.328-3.4,50.276-3.4,75.889,5.082,25.328,8.353,50.276,25.5,75.889,35.573,25.328,10.259,50.276,13.435,75.889,10.164,25.328-3.4,50.276-13.562,75.889-16.961,25.328-3.271,50.276-.1,75.889-8.449,25.328-8.48,50.276-28.808,75.889-32.207,25.328-3.271,50.276,10.069,75.889,20.328C1239.55,89.116,1264.5,96.1,1290.111,92.61c25.328-3.494,50.276-16.834,63.557-23.726L1366,62.119v71.147H0Z" transform="translate(0 426.734)" fill="#22425c"/>
    </g>
  </g>
</svg>
