<svg xmlns="http://www.w3.org/2000/svg" width="50" height="40.236" viewBox="0 0 50 40.236">
  <g id="noun_beach_3583321" transform="translate(-1.498 -11.321)">
    <path id="Caminho_262" data-name="Caminho 262" d="M15.052,93.9A26.369,26.369,0,0,1,3.513,91.554c-.4-.161-.8-.327-1.206-.488a.489.489,0,1,1,.361-.908l1.216.488a25.245,25.245,0,0,0,11.168,2.29,25.175,25.175,0,0,0,11.173-2.3,26.369,26.369,0,0,1,11.554-2.368,26.32,26.32,0,0,1,11.554,2.373l1.191.488a.489.489,0,1,1-.361.908l-1.2-.488a25.214,25.214,0,0,0-11.182-2.3,25.223,25.223,0,0,0-11.182,2.3A26.281,26.281,0,0,1,15.052,93.9Z" transform="translate(0.083 -42.937)" fill="#22425c"/>
    <path id="Caminho_262_-_Contorno" data-name="Caminho 262 - Contorno" d="M15.79,94.577c-.217,0-.438,0-.655-.008s-.429.008-.643.008a26.771,26.771,0,0,1-11.125-2.4l-.456-.186c-.239-.1-.487-.2-.734-.3a1.072,1.072,0,0,1-.03-1.981,1.076,1.076,0,0,1,.821-.011l1.23.494a24.74,24.74,0,0,0,10.938,2.243,24.613,24.613,0,0,0,10.941-2.247,26.77,26.77,0,0,1,11.17-2.424c.2,0,.411,0,.616.007s.411-.007.616-.007a26.72,26.72,0,0,1,11.17,2.428l1.178.483a1.072,1.072,0,0,1-.8,1.991l-1.224-.5A24.7,24.7,0,0,0,37.861,89.92a24.725,24.725,0,0,0-10.951,2.247A26.685,26.685,0,0,1,15.79,94.577Z" transform="translate(0 -43.02)" fill="#22425c"/>
    <path id="Caminho_263" data-name="Caminho 263" d="M35.191,79.563a.488.488,0,0,1-.488-.371L30.425,61.783a.49.49,0,1,1,.952-.234L35.67,78.957a.494.494,0,0,1-.479.606Z" transform="translate(-14.455 -29.076)" fill="#22425c"/>
    <path id="Caminho_263_-_Contorno" data-name="Caminho 263 - Contorno" d="M35.26,80.229a1.069,1.069,0,0,1-1.04-.815L29.942,62.006a1.073,1.073,0,1,1,2.085-.513L36.319,78.9a1.071,1.071,0,0,1-.789,1.3A1.129,1.129,0,0,1,35.26,80.229Z" transform="translate(-14.538 -29.159)" fill="#22425c"/>
    <path id="Caminho_264" data-name="Caminho 264" d="M24.009,34.313a.488.488,0,0,1-.488-.371l-.376-1.519a.49.49,0,0,1,.952-.234l.371,1.519a.488.488,0,0,1-.488.606Z" transform="translate(-10.73 -14.052)" fill="#22425c"/>
    <path id="Caminho_264_-_Contorno" data-name="Caminho 264 - Contorno" d="M24.081,34.98h-.035a1.075,1.075,0,0,1-1.008-.814l-.376-1.518a1.073,1.073,0,1,1,2.084-.514l.371,1.52a1.071,1.071,0,0,1-1.008,1.327h-.029Z" transform="translate(-10.813 -14.136)" fill="#22425c"/>
    <path id="Caminho_265" data-name="Caminho 265" d="M34.5,47.67a.449.449,0,0,1-.137,0,.488.488,0,0,1-.337-.347l-.034-.142c-1.768-7.178-6.1-12.52-9.429-11.7h0a.479.479,0,0,1-.239-.928h0A14.586,14.586,0,0,1,41.963,45.189h0l.034.142a.488.488,0,0,1-.557.6c-2.818-.488-4.922.044-6.607,1.611a.488.488,0,0,1-.332.132ZM27.665,35.086c2.876,1.563,5.63,5.752,7.1,11.231a8.138,8.138,0,0,1,6.084-1.465,13.639,13.639,0,0,0-13.16-9.766Z" transform="translate(-11.163 -15.236)" fill="#22425c"/>
    <path id="Caminho_265_-_Contorno" data-name="Caminho 265 - Contorno" d="M34.516,48.341a1.036,1.036,0,0,1-.157-.012l-.037-.006-.036-.01a1.076,1.076,0,0,1-.739-.761L33.51,47.4a23.266,23.266,0,0,0-3.68-8.188c-1.5-2-3.131-3.149-4.488-3.149a2.321,2.321,0,0,0-.555.066l-.016,0a1.071,1.071,0,0,1-1.264-.782l0-.021a1.077,1.077,0,0,1,.739-1.254l.028-.008a15.133,15.133,0,0,1,12.9,2.723,15.012,15.012,0,0,1,5.447,8.338l.035.146a1.071,1.071,0,0,1-1.221,1.307,10.633,10.633,0,0,0-1.8-.167,6.037,6.037,0,0,0-4.309,1.63,1.066,1.066,0,0,1-.685.287A1.035,1.035,0,0,1,34.516,48.341ZM29.745,35.892A15.118,15.118,0,0,1,32.317,39a25.672,25.672,0,0,1,2.868,6.46,8.382,8.382,0,0,1,4.481-1.178q.214,0,.434.008A13.161,13.161,0,0,0,29.745,35.892ZM25.9,34.94a4.94,4.94,0,0,1,1.619.565l.18-.709A14,14,0,0,0,25.9,34.94Z" transform="translate(-11.246 -15.319)" fill="#22425c"/>
    <path id="Caminho_266" data-name="Caminho 266" d="M2.942,53.116a.425.425,0,0,1-.156-.029.488.488,0,0,1-.317-.342L2.434,52.6a14.562,14.562,0,0,1,10.65-17.618.488.488,0,0,1,.234.947c-1.582.391-2.774,2.095-3.35,4.8a22.668,22.668,0,0,0,.435,9.927l.034.142a.488.488,0,0,1-.513.6c-2.866-.215-5.049.317-6.675,1.626A.488.488,0,0,1,2.942,53.116ZM10.389,37A13.619,13.619,0,0,0,3.25,51.8a10.054,10.054,0,0,1,6.08-1.431A23.434,23.434,0,0,1,9.007,40.5,10.128,10.128,0,0,1,10.389,37Z" transform="translate(0.078 -15.667)" fill="#22425c"/>
    <path id="Caminho_266_-_Contorno" data-name="Caminho 266 - Contorno" d="M3.046,53.783H3.012a1.007,1.007,0,0,1-.342-.064,1.067,1.067,0,0,1-.683-.745l-.036-.149A15.145,15.145,0,0,1,13.028,34.5a1.071,1.071,0,0,1,.515,2.079c-1.356.335-2.393,1.88-2.92,4.351a22.05,22.05,0,0,0,.43,9.665l.035.145a1.071,1.071,0,0,1-1.125,1.319c-.393-.029-.78-.044-1.146-.044A7.855,7.855,0,0,0,3.7,53.561l-.023.018A1.065,1.065,0,0,1,3.046,53.783ZM9.038,38.649a13.106,13.106,0,0,0-5.27,12.3,10.623,10.623,0,0,1,4.919-1.1,23.608,23.608,0,0,1-.168-9.385A10.7,10.7,0,0,1,9.038,38.649ZM11.78,36.1l-.15.237a4.211,4.211,0,0,1,.414-.332Z" transform="translate(-0.005 -15.75)" fill="#22425c"/>
    <path id="Caminho_267" data-name="Caminho 267" d="M16.9,51.279a.5.5,0,0,1-.479-.371l-.034-.142A23.833,23.833,0,0,1,15.948,40.4c.664-3.076,2.11-5.03,4.073-5.518,3.994-.977,8.658,4.453,10.616,12.389h0l.034.142a.482.482,0,0,1-.5.6,22.34,22.34,0,0,0-13.023,3.2A.488.488,0,0,1,16.9,51.279Zm4.058-15.553a3.076,3.076,0,0,0-.7.083c-1.582.391-2.774,2.095-3.35,4.8a22.2,22.2,0,0,0,.337,9.439,23.136,23.136,0,0,1,12.34-3.057C27.853,40.57,24.1,35.726,20.958,35.726Z" transform="translate(-6.858 -15.563)" fill="#22425c"/>
    <path id="Caminho_267_-_Contorno" data-name="Caminho 267 - Contorno" d="M16.985,51.945h0a1.081,1.081,0,0,1-1.043-.811l-.036-.148a24.416,24.416,0,0,1-.443-10.626c.712-3.3,2.311-5.416,4.5-5.961a4.577,4.577,0,0,1,1.087-.131c2.013,0,4.154,1.326,6.028,3.732a25.077,25.077,0,0,1,4.208,9.213l.035.144a1.073,1.073,0,0,1-.215.938l0,.006a1.07,1.07,0,0,1-.889.375c-.459-.029-.927-.044-1.39-.044a21.754,21.754,0,0,0-11.291,3.16l-.005,0a1.073,1.073,0,0,1-.536.15Zm4.056-15.553a2.5,2.5,0,0,0-.57.067c-1.35.333-2.387,1.879-2.914,4.35a20.931,20.931,0,0,0,.169,8.429,23.759,23.759,0,0,1,11.116-2.766h.044a22.42,22.42,0,0,0-3.467-7.084C23.959,37.485,22.362,36.393,21.042,36.392Z" transform="translate(-6.941 -15.646)" fill="#22425c"/>
    <path id="Caminho_268_-_Contorno" data-name="Caminho 268 - Contorno" d="M53.943,21.1H52.771a1.071,1.071,0,1,1,0-2.143h1.172a1.071,1.071,0,1,1,0,2.143Z" transform="translate(-17.687 -0.183)" fill="#22425c"/>
    <path id="Caminho_269_-_Contorno" data-name="Caminho 269 - Contorno" d="M64.143,20.925h0a4.792,4.792,0,1,1,4.792-4.792A4.8,4.8,0,0,1,64.142,20.925Zm0-7.442a2.65,2.65,0,1,0,2.65,2.65A2.652,2.652,0,0,0,64.142,13.483Z" transform="translate(-21.601 3.716)" fill="#22425c"/>
    <path id="Caminho_270_-_Contorno" data-name="Caminho 270 - Contorno" d="M68.041,7.01A1.073,1.073,0,0,1,66.97,5.938V4.761a1.071,1.071,0,0,1,2.143,0V5.938A1.073,1.073,0,0,1,68.041,7.01Z" transform="translate(-25.5 7.631)" fill="#22425c"/>
    <path id="Caminho_271_-_Contorno" data-name="Caminho 271 - Contorno" d="M68.041,35.14a1.073,1.073,0,0,1-1.071-1.071V32.891a1.071,1.071,0,0,1,2.143,0v1.177A1.073,1.073,0,0,1,68.041,35.14Z" transform="translate(-25.5 -6.763)" fill="#22425c"/>
    <path id="Caminho_272_-_Contorno" data-name="Caminho 272 - Contorno" d="M77.176,11.152l-.068,0a1.071,1.071,0,0,1-.737-1.821l.01-.01.829-.805a1.077,1.077,0,1,1,1.526,1.52l-.859.857A1.072,1.072,0,0,1,77.176,11.152Z" transform="translate(-30.154 5.326)" fill="#22425c"/>
    <path id="Caminho_273_-_Contorno" data-name="Caminho 273 - Contorno" d="M57.277,31.031h-.039a1.071,1.071,0,0,1-.716-1.832l.828-.828a1.072,1.072,0,0,1,1.52,1.512l-.871.87A1.069,1.069,0,0,1,57.277,31.031Z" transform="translate(-19.992 -4.836)" fill="#22425c"/>
    <path id="Caminho_274_-_Contorno" data-name="Caminho 274 - Contorno" d="M82.078,21.1H80.9a1.071,1.071,0,1,1,0-2.143h1.177a1.071,1.071,0,1,1,0,2.143Z" transform="translate(-32.081 -0.183)" fill="#22425c"/>
    <path id="Caminho_275_-_Contorno" data-name="Caminho 275 - Contorno" d="M77.993,31.031h-.055a1.064,1.064,0,0,1-.732-.317l-.833-.828a1.072,1.072,0,1,1,1.518-1.513l.821.821a1.071,1.071,0,0,1,.02,1.543l-.017.016A1.069,1.069,0,0,1,77.993,31.031Z" transform="translate(-30.151 -4.836)" fill="#22425c"/>
    <path id="Caminho_276_-_Contorno" data-name="Caminho 276 - Contorno" d="M58.195,11.232h-.043a1.065,1.065,0,0,1-.742-.311l-.007-.007-.857-.878-.035-.057a1.071,1.071,0,0,1,1.479-1.468l.059.036.879.884a1.074,1.074,0,0,1,0,1.511l-.033.031A1.072,1.072,0,0,1,58.195,11.232Z" transform="translate(-20.069 5.246)" fill="#22425c"/>
  </g>
</svg>
